<?xml version="1.0" standalone="no"?>
<!DOCTYPE svg PUBLIC "-//W3C//DTD SVG 1.1//EN"
  "http://www.w3.org/Graphics/SVG/1.1/DTD/svg11.dtd">
<svg width="6.998000144958496mm" height="24.1690673828125mm" viewBox="-3.499000072479248 48.0269317626953 6.998000144958496 24.1690673828125" xmlns="http://www.w3.org/2000/svg" version="1.1">
	<title>svgOutput</title>
	<desc>made with tinkercad</desc>
<path d="M 1.3211333751678467 70.8290328979492 L 1.2555818557739258 70.86408233642577 L 0.9866666793823242 71.0078659057617 L 0.38056665658950806 71.18090057373045 L 0.36153334379196167 71.18536376953124 L 0.13232240080833435 71.18939208984374 L 2.0670333609026353e-18 71.19171905517577 L -0.243599995970726 71.1959991455078 L -0.6524999737739563 71.11576843261717 L -0.6756629943847656 71.11359405517577 L -0.6848333477973938 71.11273193359374 L -1.173966646194458 70.91166687011717 L -1.1892666816711426 70.90546417236327 L -1.2176666259765625 70.88086700439452 L -1.5869333744049072 70.6382369995117 L -1.9942213296890259 70.20821380615233 L -2.0199999809265137 70.18099975585936 L -2.0296666622161865 70.16300201416014 L -2.2578001022338867 69.76956939697264 L -2.2967844009399414 69.66561126708983 L -2.41729998588562 69.34423065185545 L -2.421799898147583 69.33059692382811 L -2.4972000122070312 68.78056335449217 L -2.499000072479248 68.76499938964842 L -2.499000072479248 65.53600311279295 L -2.499000072479248 51.4720001220703 L -2.497299909591675 51.45773315429686 L -2.3880667686462402 50.79846572875975 L -2.3829667568206787 50.781833648681626 L -2.371799945831299 50.76323318481444 L -1.9320306777954102 49.94555282592772 L -1.9319666624069214 49.945434570312486 L -1.9170000553131104 49.93030166625975 L -1.8011860847473145 49.812778472900376 L -1.5893000364303589 49.59776687622069 L -1.023800015449524 49.25556564331053 L -1.0069999694824219 49.245998382568345 L -0.9872999787330627 49.23996734619139 L -0.6037010550498962 49.15200042724608 L -0.06413333117961884 49.02826690673827 L -0.04853333160281181 49.0269317626953 L -0.03123333305120468 49.029132843017564 L 0 49.03320693969725 L 0.680233359336853 49.12193298339842 L 0.6877666711807251 49.1240997314453 L 0.7035999894142151 49.13133239746092 L 0.7429403066635132 49.15200042724608 L 1.5813332796096802 49.592433929443345 L 1.5920000076293945 49.59999847412108 L 1.6063333749771118 49.615165710449205 L 2.3400332927703857 50.65723419189452 L 2.3510000705718994 50.67800140380858 L 2.499000072479248 51.4720001220703 L 2.499000072479248 65.53600311279295 L 2.499000072479248 68.76499938964842 L 2.4260001182556152 69.30899810791014 L 2.3254666328430176 69.62123107910155 L 2.3119332790374756 69.65029907226561 L 2.0199999809265137 70.18099975585936 L 1.708733320236206 70.5280303955078 L 1.6691333055496216 70.55740356445311 L 1.3211333751678467 70.8290328979492 z" fill="none" stroke="rgb(255,0,0)" stroke-width="0.001mm" />
</svg>