<?xml version="1.0" standalone="no"?>
<!DOCTYPE svg PUBLIC "-//W3C//DTD SVG 1.1//EN"
  "http://www.w3.org/Graphics/SVG/1.1/DTD/svg11.dtd">
<svg width="186.9839324951172mm" height="144.37033081054685mm" viewBox="-93.4920654296875 -72.1873321533203 186.9839324951172 144.37033081054685" xmlns="http://www.w3.org/2000/svg" version="1.1">
	<title>svgOutput</title>
	<desc>made with tinkercad</desc>
<path d="M 91.98849487304688 -65.87093353271483 L 91.97576141357422 -65.8561553955078 L 91.71051788330078 -65.53600311279295 L 91.34550476074219 -65.09539794921874 L 91.32685852050781 -65.08066558837889 L 90.84546661376953 -64.72106933593749 L 90.82882690429688 -64.71206665039061 L 90.38899993896484 -64.48200225830077 L 89.90373992919922 -64.31960296630858 L 89.87326049804688 -64.31109619140624 L 89.2633056640625 -64.2047653198242 L 89.24503326416016 -64.2036666870117 L 88.92932891845703 -64.19406890869139 L 88.927001953125 -64.19400024414061 L 88.90522766113281 -64.19680023193358 L 88.32595825195312 -64.26241302490233 L 88.30783081054688 -64.26446533203124 L 87.83030700683594 -64.39786529541014 L 87.81383514404297 -64.40236663818358 L 87.79996490478516 -64.40873718261717 L 87.36399841308594 -64.60399627685545 L 87.34799194335938 -64.61403656005858 L 87.33574676513672 -64.62187194824217 L 86.89480590820312 -64.90396881103514 L 86.85693359375 -64.92819976806639 L 86.39293670654297 -65.36319732666014 L 86.37763214111328 -65.37719726562499 L 86.2562255859375 -65.53600311279295 L 86.09827423095703 -65.74259185791014 L 85.86917114257812 -66.14182281494139 L 85.84236145019531 -66.19057464599608 L 85.5784683227539 -66.95809936523436 L 85.57453155517578 -66.98460388183592 L 85.50299835205078 -67.79370117187499 L 85.50426483154297 -67.8137741088867 L 85.5516357421875 -68.27099609374999 L 85.67922973632812 -68.78622436523436 L 85.68399810791016 -68.80699920654295 L 85.6849594116211 -68.80934906005858 L 85.8499984741211 -69.21399688720702 L 85.85790252685547 -69.2277374267578 L 86.15467834472656 -69.72013854980467 L 86.15853118896484 -69.72653198242186 L 86.18134307861328 -69.75183868408202 L 86.53417205810547 -70.17137145996092 L 87.11319732666016 -70.63632965087889 L 87.12813568115234 -70.64686584472655 L 87.58342742919922 -70.88272857666014 L 87.5976333618164 -70.88983154296874 L 88.18342590332031 -71.08799743652342 L 88.20439910888672 -71.09436798095702 L 88.81629180908203 -71.17652893066405 L 88.84173583984375 -71.17929840087889 L 88.85270690917969 -71.17873382568358 L 89.52356719970703 -71.14586639404295 L 89.53327941894531 -71.14356994628905 L 90.09098815917969 -71.01150512695311 L 90.11199951171875 -71.0060577392578 L 90.12340545654297 -71.00309753417967 L 90.85612487792969 -70.65220642089842 L 90.87446594238281 -70.6426315307617 L 91.24565887451172 -70.37100219726561 L 91.26080322265625 -70.35963439941405 L 91.63683319091797 -69.98553466796874 L 91.91426086425781 -69.61917114257811 L 91.93399810791016 -69.5960006713867 L 91.93788146972656 -69.58797454833983 L 92.31600189208984 -68.80699920654295 L 92.32120513916016 -68.78442382812499 L 92.44879913330078 -68.26919555664061 L 92.45230865478516 -68.21545410156249 L 92.4913330078125 -67.61767578124999 L 92.49186706542969 -67.59329986572264 L 92.49036407470703 -67.58239746093749 L 92.44300079345703 -67.07199859619139 L 92.43952941894531 -67.0577926635742 L 92.39335632324219 -66.87745666503905 L 92.31676483154297 -66.57833099365233 L 92.00550079345703 -65.90457153320311 L 91.9892807006836 -65.87247467041014 L 91.98849487304688 -65.87093353271483 M 85.9085693359375 48.63496017456053 L 86.1366958618164 48.304706573486314 L 86.3706283569336 47.96603393554687 L 86.3818359375 47.952766418457024 L 86.76366424560547 47.58543395996093 L 86.77476501464844 47.57586669921874 L 87.27308654785156 47.24393463134765 L 87.34799194335938 47.194038391113274 L 87.36399841308594 47.18399810791015 L 87.88400268554688 46.95800018310546 L 88.99855041503906 46.78110122680663 L 89.01272583007812 46.77730178833007 L 89.03453063964844 46.7750015258789 L 89.05340576171875 46.77643203735351 L 89.52899932861328 46.818000793457024 L 90.08200073242188 46.94499969482421 L 90.3787612915039 47.05906677246093 L 90.40103912353516 47.06896972656249 L 90.41027069091797 47.07493591308593 L 91.62632751464844 47.9690933227539 L 91.64032745361328 47.98089599609374 L 91.6509017944336 47.99266815185546 L 92.22315979003906 48.923557281494126 L 92.23899841308594 48.95100021362303 L 92.30481719970703 49.15200042724608 L 92.38700103759766 49.40299987792967 L 92.48300170898438 49.94300079345702 L 92.4749984741211 50.67399978637694 L 92.39800262451172 51.10599899291991 L 92.39309692382812 51.12107086181639 L 92.15336608886719 51.78612899780272 L 92.14659881591797 51.800468444824205 L 91.77346801757812 52.40076065063475 L 91.76399993896484 52.41500091552733 L 91.4469985961914 52.769001007080064 L 91.0270004272461 53.122001647949205 L 91.00909423828125 53.13250350952147 L 90.22900390625 53.546230316162095 L 90.2165298461914 53.551200866699205 L 90.11199951171875 53.58273315429686 L 89.8095703125 53.67396545410155 L 89.77359008789062 53.68003463745116 L 89.35502624511719 53.74866867065428 L 88.78856658935547 53.76026535034178 L 88.76429748535156 53.757999420166 L 88.30899810791016 53.70000076293944 L 87.5366439819336 53.44577026367186 L 87.50672912597656 53.43533325195311 L 86.91100311279297 53.07465744018553 L 86.90160369873047 53.068969726562486 L 86.88800048828125 53.06080245971678 L 86.88777923583984 53.06059646606444 L 86.50810241699219 52.71667098999022 L 86.48716735839844 52.69806671142577 L 85.88204193115234 51.85224151611327 L 85.87017059326172 51.8360023498535 L 85.86112976074219 51.81803131103514 L 85.62623596191406 51.12590408325194 L 85.62133026123047 51.110832214355455 L 85.61803436279297 51.07935714721678 L 85.50299835205078 50.16199874877928 L 85.5123519897461 50.07169342041014 L 85.55036926269531 49.704772949218736 L 85.55896759033203 49.66439056396483 L 85.7040786743164 49.15200042724608 L 85.76100158691406 48.95100021362303 L 85.77613830566406 48.92495727539061 L 85.9085693359375 48.63496017456053 M 7 42.26900100708007 L 0 42.26900100708007 L -7 42.26900100708007 L -7 33.27199935913085 L 0 33.27199935913085 L 7 33.27199935913085 L 7 42.26900100708007 M 0.9256982207298279 49.19193267822264 L 0.9299777150154114 49.19395828247069 L 0.9445711970329285 49.200870513916 L 1.1079037189483643 49.28353881835936 L 1.3380000591278076 49.40000152587889 L 1.8222944736480713 49.80309677124022 L 1.831464171409607 49.80976486206053 L 1.8435014486312866 49.82233428955077 L 2.2750437259674072 50.486759185791 L 2.282363176345825 50.49802780151366 L 2.2929999828338623 50.51599884033202 L 2.439931631088257 50.97225952148436 L 2.4441330432891846 50.98463058471678 L 2.4963324069976807 51.43702697753905 L 2.499000072479248 51.45600128173827 L 2.499000072479248 65.53600311279295 L 2.499000072479248 68.74400329589842 L 2.497199296951294 68.7595748901367 L 2.426633596420288 69.28446960449217 L 2.3404910564422607 69.55200195312499 L 2.326101303100586 69.59669494628905 L 2.3191657066345215 69.61637115478514 L 1.7633388042449951 70.45252227783202 L 1.753935694694519 70.46719360351561 L 1.735562801361084 70.48440551757811 L 1.3199009895324707 70.81209564208983 L 1.292091727256775 70.8242721557617 L 0.6318659782409668 71.10653686523436 L 0.6180946826934814 71.10856628417967 L 0.15700000524520874 71.18299865722655 L 0.13010846078395844 71.18064117431639 L 0 71.16923522949217 L -0.23974300920963287 71.14822387695311 L -0.5708916187286377 71.11920166015624 L -0.9304875135421753 70.99933624267577 L -0.9738019108772278 70.98999786376952 L -1.5576618909835815 70.64103698730467 L -1.5699659585952759 70.63366699218749 L -1.9440616369247437 70.25763702392577 L -1.9610340595245361 70.24019622802733 L -2.311929941177368 69.62830352783202 L -2.4076287746429443 69.34120941162108 L -2.421800374984741 69.30960083007811 L -2.4243390560150146 69.29107666015624 L -2.497199296951294 68.7595748901367 L -2.499000072479248 68.74400329589842 L -2.499000072479248 65.53600311279295 L -2.499000072479248 51.45600128173827 L -2.433000087738037 50.96400070190428 L -2.4283318519592285 50.949062347412095 L -2.2437005043029785 50.41353607177733 L -1.98947012424469 50.00753784179686 L -1.9760323762893677 49.986232757568345 L -1.6290030479431152 49.61986923217772 L -1.6190663576126099 49.610099792480455 L -1.1821380853652954 49.312370300292955 L -1.1580634117126465 49.29850006103514 L -0.714368462562561 49.11870193481444 L -0.6966292262077332 49.11436462402342 L -0.2635675370693207 49.02543258666991 L 0 49.03128051757811 L 0.30289262533187866 49.037998199462876 L 0.3306352198123932 49.03873443603514 L 0.3399049639701843 49.04113388061522 L 0.9256982207298279 49.19193267822264 M -88.47882843017578 -71.14699554443358 L -88.47496032714844 -71.14612579345702 L -87.961669921875 -71.03003692626952 L -87.9403305053711 -71.02276611328124 L -87.93052673339844 -71.01776123046874 L -87.25 -70.7210006713867 L -86.99327850341797 -70.53957366943358 L -86.74199676513672 -70.36199951171874 L -86.35547637939453 -69.97746276855467 L -86.35299682617188 -69.97499847412108 L -86.34126281738281 -69.9586944580078 L -86.06383514404297 -69.59233093261717 L -86.05372619628906 -69.57082366943358 L -85.697998046875 -68.84100341796874 L -85.682373046875 -68.78031921386717 L -85.552001953125 -68.2740020751953 L -85.50299835205078 -67.80100250244139 L -85.5770034790039 -66.96399688720702 L -85.75486755371094 -66.38980865478514 L -85.78150939941406 -66.33695220947264 L -85.96614074707031 -65.95512390136717 L -85.99168395996094 -65.92002105712889 L -86.27113342285156 -65.53600311279295 L -86.4233627319336 -65.32679748535155 L -86.75782775878906 -65.0116729736328 L -86.77003479003906 -64.99973297119139 L -86.7714614868164 -64.99882507324217 L -87.48535919189453 -64.54540252685545 L -87.51210021972656 -64.52843475341795 L -87.52577209472656 -64.52320098876952 L -87.91919708251953 -64.36466979980467 L -87.97059631347656 -64.35286712646483 L -88.4537582397461 -64.2418975830078 L -88.4801025390625 -64.2368698120117 L -89.18576049804688 -64.20400238037108 L -89.21013641357422 -64.2047653198242 L -89.68476104736328 -64.26276397705077 L -89.71073913574219 -64.26943206787108 L -90.21595764160156 -64.41515350341795 L -90.22016906738281 -64.41636657714842 L -90.23717498779297 -64.4246368408203 L -90.65670013427734 -64.61216735839842 L -91.1989974975586 -64.97756195068358 L -91.21546936035156 -64.98909759521483 L -91.22603607177734 -64.99923706054686 L -91.62236785888672 -65.37719726562499 L -91.62945556640625 -65.38610839843749 L -91.63300323486328 -65.39057159423827 L -91.73530578613281 -65.53600311279295 L -92.009033203125 -65.92513275146483 L -92.01480102539062 -65.93447113037108 L -92.02310180664062 -65.95347595214842 L -92.31600189208984 -66.57599639892577 L -92.33522033691406 -66.66795349121092 L -92.48226165771484 -67.37155914306639 L -92.48789978027344 -67.39959716796874 L -92.4724349975586 -68.01729583740233 L -92.47236633300781 -68.0374298095703 L -92.47183990478516 -68.04098510742186 L -92.47039794921875 -68.05070495605467 L -92.3196029663086 -68.79405975341795 L -92.31676483154297 -68.80466461181639 L -92.30986785888672 -68.82164001464842 L -92.13200378417969 -69.24600219726561 L -91.8290023803711 -69.74600219726561 L -91.8162612915039 -69.76077270507811 L -91.54753112792969 -70.0894317626953 L -91.48412322998047 -70.14594268798827 L -91.13863372802734 -70.45386505126952 L -91.12660217285156 -70.46420288085936 L -90.66743469238281 -70.76386260986327 L -90.65612030029297 -70.77120971679686 L -90.65516662597656 -70.77183532714842 L -90.63616180419922 -70.78013610839842 L -90.21662902832031 -70.96766662597655 L -90.11199951171875 -70.99542999267577 L -89.6192398071289 -71.12619781494139 L -89.592529296875 -71.13223266601561 L -88.9758071899414 -71.1873321533203 L -88.51760864257812 -71.14963531494139 L -88.47882843017578 -71.14699554443358 M -87.3564682006836 47.19253158569335 L -87.34906005859375 47.196941375732415 L -87.33446502685547 47.205635070800774 L -86.88400268554688 47.485000610351555 L -86.87296295166016 47.494670867919915 L -86.24656677246094 48.116230010986314 L -86.23600006103516 48.12799835205077 L -86.2257308959961 48.14390563964842 L -85.76657104492188 48.93946456909178 L -85.75843048095703 48.95783615112303 L -85.70344543457031 49.15200042724608 L -85.55640411376953 49.67122650146483 L -85.5528335571289 49.68416595458983 L -85.55056762695312 49.70293807983397 L -85.5031967163086 50.16016769409178 L -85.5054702758789 50.18991088867186 L -85.55186462402344 50.84143447875975 L -85.556640625 50.861225128173814 L -85.68043518066406 51.37406158447264 L -85.6879653930664 51.397270202636705 L -85.8030014038086 51.694999694824205 L -85.817138671875 51.71807479858397 L -85.99693298339844 52.063171386718736 L -86.23017120361328 52.405944824218736 L -86.23570251464844 52.41406631469725 L -86.54212951660156 52.75626373291014 L -86.55650329589844 52.772399902343736 L -86.56700134277344 52.78076934814452 L -86.9729995727539 53.122001647949205 L -87.07190704345703 53.18309020996092 L -87.177001953125 53.2480010986328 L -87.34700012207031 53.353000640869126 L -87.36320495605469 53.36006927490233 L -87.65029907226562 53.499267578124986 L -87.77407836914062 53.53929519653319 L -88.10462951660156 53.646198272705064 L -88.12590026855469 53.65153503417967 L -88.6285629272461 53.75013351440428 L -88.64497375488281 53.75156784057616 L -88.96299743652344 53.76800155639647 L -88.98187255859375 53.766567230224595 L -89.47679901123047 53.73563385009764 L -89.52465057373047 53.72533035278319 L -89.94369506835938 53.63510131835936 L -89.9608154296875 53.631198883056626 L -89.9621353149414 53.63090133666991 L -89.97237396240234 53.62696456909178 L -90.11199951171875 53.57578659057616 L -90.48663330078125 53.438468933105455 L -90.96029663085938 53.16200256347655 L -90.9815673828125 53.15003204345702 L -90.98330688476562 53.14857101440428 L -90.99557495117188 53.138263702392564 L -91.61809539794922 52.590167999267564 L -91.62796783447266 52.579364776611314 L -91.97209930419922 52.10860443115233 L -91.98506927490234 52.08796310424803 L -92.30986785888672 51.401638031005845 L -92.31522369384766 51.388454437255845 L -92.31676483154297 51.38466644287108 L -92.32023620605469 51.37046051025389 L -92.42463684082031 50.99539947509764 L -92.49036407470703 50.451171874999986 L -92.4920654296875 50.435398101806626 L -92.4914321899414 50.41712570190428 L -92.48273468017578 49.94056701660155 L -92.47743225097656 49.91675949096678 L -92.31600189208984 49.155998229980455 L -92.3142318725586 49.15200042724608 L -92.307861328125 49.137626647949205 L -91.76943969726562 48.14873886108397 L -91.76066589355469 48.134799957275376 L -91.74859619140625 48.12106323242186 L -91.23626708984375 47.5855369567871 L -91.22122955322266 47.5730972290039 L -91.2043228149414 47.56332778930663 L -90.2280044555664 46.99976730346679 L -90.20143127441406 46.9909324645996 L -89.53443145751953 46.81886672973632 L -89.52233123779297 46.817066192626946 L -88.7374038696289 46.796768188476555 L -88.71234893798828 46.79748153686523 L -88.70939636230469 46.79756546020507 L -88.69389343261719 46.80089950561523 L -87.9215316772461 46.94396591186523 L -87.37247467041016 47.18659591674804 L -87.3564682006836 47.19253158569335 z" fill="none" stroke="rgb(255,0,0)" stroke-width="0.001mm" />
</svg>