<?xml version="1.0" standalone="no"?>
<!DOCTYPE svg PUBLIC "-//W3C//DTD SVG 1.1//EN"
  "http://www.w3.org/Graphics/SVG/1.1/DTD/svg11.dtd">
<svg width="188.48146057128906mm" height="128.49203491210935mm" viewBox="-94.2344970703125 -64.2480010986328 188.48146057128906 128.49203491210935" xmlns="http://www.w3.org/2000/svg" version="1.1">
	<title>svgOutput</title>
	<desc>made with tinkercad</desc>
<path d="M 92.38806915283203 -61.55253219604491 L 92.39122009277344 -61.54808425903319 L 92.40263366699219 -61.53196716308592 L 92.78157043457031 -60.93456649780272 L 92.78839874267578 -60.92060089111327 L 93.06293487548828 -60.24393463134764 L 93.0708999633789 -60.22083282470702 L 93.21686553955078 -59.50550079345702 L 93.22000122070312 -59.48799896240233 L 93.22049713134766 -59.46360015869139 L 93.22049713134766 -58.520133972167955 L 93.2164306640625 -58.49306488037108 L 93.01343536376953 -57.61533355712889 L 93.00563049316406 -57.59296798706053 L 92.88861846923828 -57.34400177001952 L 92.64990234375 -56.83606719970702 L 92.6409683227539 -56.819034576416 L 92.62876892089844 -56.80223464965819 L 92.24500274658203 -56.257999420166 L 92.23596954345703 -56.24819946289061 L 92.21043395996094 -56.22617340087889 L 91.26349639892578 -55.4091339111328 L 91.25170135498047 -55.39899826049803 L 91.22996520996094 -55.38493347167967 L 90.65673065185547 -55.09106826782225 L 90.63912963867188 -55.08326721191405 L 89.90059661865234 -54.859001159667955 L 89.88349914550781 -54.85403442382811 L 89.85559844970703 -54.85060119628905 L 88.70333099365234 -54.76359939575194 L 88.6870346069336 -54.76423263549803 L 88.6680679321289 -54.76743316650389 L 88.6510009765625 -54.772434234619126 L 87.36146545410156 -55.083698272705064 L 87.05863189697266 -55.23894882202147 L 86.7882308959961 -55.37756729125975 L 86.76300048828125 -55.38999938964842 L 86.76045989990234 -55.391803741455064 L 86.3280029296875 -55.699001312255845 L 86.31346893310547 -55.712734222412095 L 85.88912200927734 -56.12815856933592 L 85.7614974975586 -56.25310134887694 L 85.40769958496094 -56.7402992248535 L 85.3926010131836 -56.75949859619139 L 85.37813568115234 -56.78863143920897 L 85.12629699707031 -57.34400177001952 L 84.9354019165039 -57.76496505737303 L 84.7964096069336 -58.44611358642577 L 84.78943634033203 -58.4803009033203 L 84.78113555908203 -58.52233505249022 L 84.78113555908203 -59.46580123901366 L 84.78099822998047 -59.47470092773436 L 84.78303527832031 -59.49459838867186 L 84.88646697998047 -60.043666839599595 L 84.89046478271484 -60.061733245849595 L 85.18626403808594 -60.86696624755858 L 85.19499969482422 -60.88899993896483 L 85.20989990234375 -60.91146850585936 L 85.39936828613281 -61.248832702636705 L 85.66133880615234 -61.592163085937486 L 85.78999328613281 -61.760768890380845 L 85.89430236816406 -61.89746856689452 L 86.14080047607422 -62.13816833496092 L 86.16366577148438 -62.16276550292967 L 86.74849700927734 -62.59970092773436 L 86.76300048828125 -62.61000061035155 L 86.77459716796875 -62.61656570434569 L 87.18760681152344 -62.842807769775376 L 87.18930053710938 -62.84373474121092 L 87.21076965332031 -62.851799011230455 L 87.69120025634766 -63.03836822509764 L 88.31759643554688 -63.19013214111327 L 88.34877014160156 -63.1963653564453 L 89.07666778564453 -63.24760055541991 L 89.08999633789062 -63.2480010986328 L 89.1149673461914 -63.24499893188475 L 89.88056945800781 -63.14640045166014 L 89.90059661865234 -63.14099884033202 L 90.11199951171875 -63.07680511474608 L 90.63912963867188 -62.91673278808592 L 90.66576385498047 -62.90386581420897 L 91.23899841308594 -62.61000061035155 L 91.9739990234375 -62.03599929809569 L 92.37903594970703 -61.5623321533203 L 92.38806915283203 -61.55253219604491 M 92.24500274658203 56.257999420166 L 92.38011932373047 56.44406127929686 L 92.61100006103516 56.76200103759764 L 92.8995590209961 57.34400177001952 L 92.95417022705078 57.45413208007811 L 92.96746826171875 57.48220062255858 L 93.12213134765625 57.97423171997069 L 93.12913513183594 58.00450134277342 L 93.22000122070312 58.51200103759764 L 93.21796417236328 58.55619812011717 L 93.24696350097656 59.02793502807616 L 93.21796417236328 59.499668121337876 L 93.16053771972656 59.8045082092285 L 93.1466064453125 59.87845993041991 L 93.11453247070312 60.048732757568345 L 92.90766906738281 60.65869903564452 L 92.89900207519531 60.68700027465819 L 92.55196380615234 61.32886505126952 L 92.54236602783203 61.3472328186035 L 92.54132843017578 61.34854888916014 L 92.52400207519531 61.37043380737303 L 92.23883056640625 61.74840164184569 L 92.17635345458984 61.809570312499986 L 91.6868667602539 62.28876495361327 L 91.6705322265625 62.303798675537095 L 91.65570068359375 62.313632965087876 L 91.23519897460938 62.61233520507811 L 91.11802673339844 62.670070648193345 L 90.50343322753906 62.972900390624986 L 90.48200225830078 62.98300170898436 L 90.11199951171875 63.067199707031236 L 89.4010009765625 63.22900009155272 L 89.37876892089844 63.229267120361314 L 88.60745239257812 63.207336425781236 L 88.39276885986328 63.201232910156236 L 87.88719940185547 63.09780120849608 L 87.40193176269531 62.92476654052733 L 87.35600280761719 62.914001464843736 L 87.33623504638672 62.90386581420897 L 86.4449691772461 62.38959884643553 L 86.43046569824219 62.379299163818345 L 85.90653228759766 61.90273284912108 L 85.89199829101562 61.88899993896483 L 85.87767028808594 61.871067047119126 L 85.40433502197266 61.25601959228514 L 85.39336395263672 61.24176788330077 L 85.14976501464844 60.787433624267564 L 85.13846588134766 60.76663208007811 L 85.13066864013672 60.74426651000975 L 84.84646606445312 59.888767242431626 L 84.84239959716797 59.86169815063475 L 84.78150177001953 59.47986602783202 L 84.78060150146484 59.45038986206053 L 84.75926971435547 58.750034332275376 L 84.7597427368164 58.72693634033202 L 84.759765625 58.72563171386717 L 84.7618637084961 58.7124671936035 L 84.85563659667969 58.07446670532225 L 84.85856628417969 58.06296539306639 L 85.09761047363281 57.34400177001952 L 85.10893249511719 57.30993270874022 L 85.12419891357422 57.27626800537108 L 85.4374008178711 56.68949890136717 L 85.44960021972656 56.67269897460936 L 86.01896667480469 55.97380065917967 L 86.03453063964844 55.957965850830064 L 86.32453155517578 55.701801300048814 L 86.34249877929688 55.68870162963866 L 86.86921691894531 55.3244171142578 L 86.87223052978516 55.32233428955077 L 86.9003677368164 55.30923461914061 L 87.36436462402344 55.083034515380845 L 88.31169891357422 54.811401367187486 L 88.33163452148438 54.805698394775376 L 88.7598648071289 54.76026535034178 L 88.78343200683594 54.75780105590819 L 89.29866790771484 54.76359939575194 L 89.31199645996094 54.76399993896483 L 89.97000122070312 54.86700057983397 L 90.11199951171875 54.91300201416014 L 90.64600372314453 55.085998535156236 L 90.66576385498047 55.096134185791 L 91.36176300048828 55.47700119018553 L 91.372802734375 55.48450088500975 L 91.39530181884766 55.50593185424803 L 91.79356384277344 55.79883193969725 L 92.24500274658203 56.257999420166 M -85.57086944580078 -61.49649810791014 L -85.5395736694336 -61.445514678955064 L -85.20063018798828 -60.89329910278319 L -85.19536590576172 -60.88266754150389 L -84.938232421875 -60.22243499755858 L -84.93199920654297 -60.20500183105467 L -84.78199768066406 -59.48799896240233 L -84.763427734375 -58.8491973876953 L -84.76266479492188 -58.82293319702147 L -84.76266479492188 -58.79040145874022 L -84.98113250732422 -57.633300781249986 L -84.98426818847656 -57.6157989501953 L -84.99500274658203 -57.58663177490233 L -85.09877014160156 -57.34400177001952 L -85.197998046875 -57.111999511718736 L -85.58100128173828 -56.48799896240233 L -86.01309967041016 -55.98146820068358 L -86.03240203857422 -55.96003341674803 L -86.5621337890625 -55.52213287353514 L -86.58993530273438 -55.50253295898436 L -86.9186019897461 -55.29856491088866 L -87.64649963378906 -54.9805335998535 L -87.66899871826172 -54.971000671386705 L -88.33599853515625 -54.80500030517577 L -89.06800079345703 -54.75699996948241 L -89.66500091552734 -54.80500030517577 L -89.68659973144531 -54.810234069824205 L -90.11199951171875 -54.92284011840819 L -90.47540283203125 -55.01903152465819 L -90.49723052978516 -55.028232574462876 L -90.9762954711914 -55.24915695190428 L -91.08206939697266 -55.297931671142564 L -91.5479965209961 -55.60533523559569 L -91.56683349609375 -55.617065429687486 L -91.5782699584961 -55.626499176025376 L -91.97073364257812 -55.96096801757811 L -91.98796844482422 -55.98033523559569 L -92.3968734741211 -56.460197448730455 L -92.43360137939453 -56.50329971313475 L -92.79029846191406 -57.09006500244139 L -92.80400085449219 -57.111999511718736 L -92.81366729736328 -57.136833190917955 L -92.81576538085938 -57.145500183105455 L -92.88549041748047 -57.34400177001952 L -93.15699768066406 -58.11700057983397 L -93.20055389404297 -58.733512878417955 L -93.22563171386719 -59.088500976562486 L -93.22723388671875 -59.0972328186035 L -93.22823333740234 -59.10606765747069 L -93.2287368774414 -59.11793518066405 L -93.22723388671875 -59.13863372802733 L -93.12863159179688 -59.99993515014647 L -93.0203628540039 -60.37113189697264 L -93.00636291503906 -60.414699554443345 L -92.81574249267578 -60.86039352416991 L -92.8033676147461 -60.88933181762694 L -92.43313598632812 -61.49253463745116 L -92.42240142822266 -61.51026535034178 L -92.41016387939453 -61.52513504028319 L -91.97806549072266 -62.03166580200194 L -91.96046447753906 -62.04753494262694 L -91.56800079345703 -62.38199996948241 L -91.00800323486328 -62.743000030517564 L -90.98059844970703 -62.75419998168944 L -90.11199951171875 -63.0772132873535 L -89.93563079833984 -63.14279937744139 L -89.91166687011719 -63.147434234619126 L -89.47087860107422 -63.217826843261705 L -89.4031982421875 -63.22863388061522 L -88.88796997070312 -63.244098663330064 L -88.86799621582031 -63.24499893188475 L -88.85026550292969 -63.24333190917967 L -88.2731704711914 -63.18146514892577 L -88.2558364868164 -63.17760086059569 L -87.69226837158203 -63.04226684570311 L -87.67283630371094 -63.035034179687486 L -86.92656707763672 -62.7053985595703 L -86.91089630126953 -62.69699859619139 L -86.24873352050781 -62.2223663330078 L -86.22423553466797 -62.20323181152342 L -86.21330261230469 -62.19113159179686 L -85.58496856689453 -61.517368316650376 L -85.57086944580078 -61.49649810791014 M -85.197998046875 57.111999511718736 L -85.14632415771484 57.23974227905272 L -85.1041488647461 57.34400177001952 L -84.95633697509766 57.70940017700194 L -84.95069122314453 57.72473907470702 L -84.94560241699219 57.73856735229491 L -84.7706298828125 58.730365753173814 L -84.76750183105469 58.7478675842285 L -84.76750183105469 58.78039932250975 L -84.78199768066406 59.48799896240233 L -84.78700256347656 59.511901855468736 L -84.89720153808594 60.08126831054686 L -84.91754150390625 60.135898590087876 L -85.18913269042969 60.865234374999986 L -85.19416809082031 60.87996673583983 L -85.19575500488281 60.883022308349595 L -85.20339965820312 60.89770126342772 L -85.45860290527344 61.345268249511705 L -85.84719848632812 61.831501007080064 L -85.85853576660156 61.8479652404785 L -85.86848449707031 61.858127593994126 L -85.87716674804688 61.86700057983397 L -86.42816925048828 62.377399444580064 L -86.44373321533203 62.388732910156236 L -87.15906524658203 62.82180023193358 L -87.17554473876953 62.83059692382811 L -87.17866516113281 62.832267761230455 L -87.19539642333984 62.83829879760741 L -87.81600189208984 63.078998565673814 L -88.33699798583984 63.194999694824205 L -88.35469818115234 63.19666671752928 L -88.90870666503906 63.24387741088866 L -88.91053009033203 63.24403381347655 L -88.93273162841797 63.24306488037108 L -89.44796752929688 63.225666046142564 L -89.46753692626953 63.22156524658202 L -90.11199951171875 63.09477233886717 L -90.12100219726562 63.09299850463866 L -90.13856506347656 63.087131500244126 L -90.8219985961914 62.83290100097655 L -90.84666442871094 62.81943511962889 L -91.42473602294922 62.489799499511705 L -91.43543243408203 62.48183441162108 L -91.88203430175781 62.112567901611314 L -91.89703369140625 62.098232269287095 L -92.30522155761719 61.60510635375975 L -92.56596374511719 61.290100097656236 L -92.57866668701172 61.27366638183592 L -93.1064682006836 60.05759811401366 L -93.12006378173828 60.03133392333983 L -93.1259994506836 60.013000488281236 L -93.23136901855469 59.37789916992186 L -93.2344970703125 59.36040115356444 L -93.2344970703125 59.35901260375975 L -93.2344970703125 59.32786560058592 L -93.22000122070312 58.51200103759764 L -93.21686553955078 58.494499206542955 L -92.9259033203125 57.37413406372069 L -92.91780090332031 57.350299835205064 L -92.91452026367188 57.34400177001952 L -92.65003204345703 56.836032867431626 L -92.63463592529297 56.80989837646483 L -92.35633087158203 56.405544281005845 L -92.30596923828125 56.33236694335936 L -91.98889923095703 55.98146820068358 L -91.972900390625 55.96300125122069 L -91.58043670654297 55.628532409667955 L -91.56683349609375 55.617065429687486 L -91.54933166503906 55.60596847534178 L -91.00800323486328 55.25699996948241 L -90.97085571289062 55.239048004150376 L -90.64800262451172 55.083000183105455 L -90.11199951171875 54.919677734374986 L -89.95006561279297 54.870334625244126 L -89.9346694946289 54.864933013916 L -89.92915344238281 54.86396026611327 L -89.90406799316406 54.85953521728514 L -89.26799774169922 54.758998870849595 L -88.62419891357422 54.77930068969725 L -88.60272979736328 54.779865264892564 L -88.60197448730469 54.780002593994126 L -88.57723236083984 54.784366607666 L -87.81743621826172 54.92066574096678 L -87.33216857910156 55.095634460449205 L -87.30933380126953 55.104267120361314 L -86.45866394042969 55.60306549072264 L -86.43399810791016 55.618000030517564 L -85.95162963867188 56.04526519775389 L -85.93263244628906 56.062866210937486 L -85.57593536376953 56.493034362792955 L -85.56253051757812 56.509799957275376 L -85.5537338256836 56.525234222412095 L -85.197998046875 57.111999511718736 z" fill="none" stroke="rgb(255,0,0)" stroke-width="0.001mm" />
</svg>